<?xml version="1.0" encoding="utf-8"?>
<!-- Generator: Adobe Illustrator 21.0.1, SVG Export Plug-In . SVG Version: 6.00 Build 0)  -->
<svg version="1.1" id="Layer_1" xmlns="http://www.w3.org/2000/svg" xmlns:xlink="http://www.w3.org/1999/xlink" x="0px" y="0px"
	 viewBox="0 0 188 57" style="enable-background:new 0 0 188 57;" xml:space="preserve">
<style type="text/css">
	.st0{fill-rule:evenodd;clip-rule:evenodd;fill:#FFFFFF;}
	.st1{fill:#FFFFFF;}
</style>
<title>DCC-Logo-white Copy</title>
<desc>Created with Sketch.</desc>
<path class="st0" d="M25.6,0.5c13.7,0,24.7,11.1,24.7,24.8C50.4,38.9,39.3,50,25.6,50h-25V0.5H25.6 M21.5,19h4.1
	c3.4,0,6.2,2.7,6.2,6.2c0,3.4-2.8,6.2-6.2,6.2h-6.4V11.3h6.4c7.7,0,13.9,6.2,13.9,13.9c0,7.7-6.2,13.9-13.9,13.9H11.5V6H6.2v38.4
	h19.4c10.6,0,19.2-8.6,19.2-19.2C44.8,14.6,36.2,6,25.6,6H13.4v31.2h12.2c6.6,0,12-5.4,12-12c0-6.6-5.4-12-12-12h-4.1V19z"/>
<g>
	<path class="st1" d="M67.1,40.1c-0.4-3-2.9-4.6-5.8-4.6c-4.4,0-6.7,3.4-6.7,7.5c0,4.1,2.1,7.4,6.6,7.4c3.6,0,5.8-2.2,6.1-5.7h-1.9
		c-0.2,2.3-1.6,4.1-4.1,4.1c-3.4,0-4.8-2.7-4.8-5.9c0-3,1.4-5.7,4.8-5.7c2,0,3.6,1,4,3H67.1"/>
	<path class="st0" d="M70.5,44.9c0-2.5,1.4-3.9,3.2-3.9c1.8,0,3.2,1.4,3.2,3.9c0,2.5-1.4,3.9-3.2,3.9C72,48.7,70.5,47.3,70.5,44.9
		 M68.8,44.9c0,3,1.7,5.4,5,5.4c3.3,0,5-2.4,5-5.4c0-3-1.7-5.4-5-5.4C70.5,39.5,68.8,41.8,68.8,44.9"/>
	<path class="st1" d="M88.8,39.7h-1.7v5.8c0,1.8-1,3.2-3,3.2c-1.3,0-2.1-0.8-2.1-2.1v-7h-1.7v6.8c0,2.2,0.8,3.8,3.5,3.8
		c1.5,0,2.6-0.6,3.3-1.9h0V50h1.6V39.7"/>
	<path class="st1" d="M91,50h1.7v-5.8c0-1.8,1-3.2,3-3.2c1.3,0,2.1,0.8,2.1,2.1v7h1.7v-6.8c0-2.2-0.8-3.8-3.5-3.8
		c-1.5,0-2.6,0.6-3.3,1.9h0v-1.6H91V50"/>
	<path class="st1" d="M104.2,36.6h-1.7v3.1h-1.7v1.5h1.7v6.5c0,1.9,0.7,2.2,2.4,2.2h1.3v-1.5h-0.8c-1.1,0-1.3-0.1-1.3-0.9v-6.4h2
		v-1.5h-2V36.6"/>
	<path class="st1" d="M117.4,39.7h-1.8l-2.9,8.4h0l-3-8.4h-1.9l4.1,10.2l-0.7,1.7c-0.3,0.6-0.7,0.9-1.4,0.9c-0.3,0-0.7-0.1-1-0.2
		v1.6c0.4,0.1,0.8,0.2,1.2,0.2c1.5,0,2.2-0.7,3-2.7L117.4,39.7"/>
	<path class="st1" d="M136.5,40.1c-0.4-3-2.9-4.6-5.9-4.6c-4.4,0-6.7,3.4-6.7,7.5c0,4.1,2.2,7.4,6.6,7.4c3.6,0,5.8-2.2,6.1-5.7h-1.9
		c-0.2,2.3-1.6,4.1-4.1,4.1c-3.4,0-4.8-2.7-4.8-5.9c0-3,1.4-5.7,4.8-5.7c2,0,3.6,1,4,3H136.5"/>
	<path class="st0" d="M139.7,44.9c0-2.5,1.4-3.9,3.2-3.9c1.8,0,3.2,1.4,3.2,3.9c0,2.5-1.4,3.9-3.2,3.9
		C141.1,48.7,139.7,47.3,139.7,44.9 M137.9,44.9c0,3,1.7,5.4,5,5.4c3.3,0,5-2.4,5-5.4c0-3-1.7-5.4-5-5.4
		C139.7,39.5,137.9,41.8,137.9,44.9"/>
	<path class="st1" d="M158,39.7h-1.7v5.8c0,1.8-1,3.2-3,3.2c-1.3,0-2.1-0.8-2.1-2.1v-7h-1.7v6.8c0,2.2,0.8,3.8,3.5,3.8
		c1.5,0,2.6-0.6,3.3-1.9h0V50h1.6V39.7"/>
	<path class="st1" d="M160.3,50h1.7v-5.8c0-1.8,1-3.2,3-3.2c1.3,0,2.1,0.8,2.1,2.1v7h1.7v-6.8c0-2.2-0.8-3.8-3.5-3.8
		c-1.5,0-2.6,0.6-3.3,1.9h0v-1.6h-1.6V50"/>
	<path class="st1" d="M179.7,43c-0.2-2.5-2.1-3.5-4.4-3.5c-3.3,0-4.8,2.4-4.8,5.5c0,3.1,1.7,5.2,4.8,5.2c2.6,0,4.2-1.5,4.5-4H178
		c-0.2,1.6-1.2,2.5-2.8,2.5c-2.1,0-3-1.9-3-3.8c0-2.1,0.8-4,3.2-4c1.4,0,2.3,0.8,2.5,2H179.7"/>
	<path class="st0" d="M183.2,35.8h-1.7v2.1h1.7V35.8z M183.2,39.7h-1.7V50h1.7V39.7z"/>
	<rect x="185.8" y="35.8" class="st1" width="1.7" height="14.2"/>
</g>
<path class="st0" d="M58.7,21.3h1.8c2.6,0,4,1.3,4,3.9c0,2.9-1.1,4-4,4.1h-1.8V21.3 M55,32.5h6.2c4.4,0,7.1-2.6,7.1-7.3
	c0-4.5-2.7-7.2-7.1-7.2H55V32.5z"/>
<polygon class="st1" points="70,32.5 81.7,32.5 81.7,29.3 73.7,29.3 73.7,26.5 80.8,26.5 80.8,23.6 73.7,23.6 73.7,21.1 81.5,21.1 
	81.5,18 70,18 "/>
<path class="st0" d="M87.6,21.1h3c1.1,0,1.9,0.5,1.9,1.6c0,1.1-0.6,1.7-1.8,1.7h-3.2V21.1 M83.9,32.5h3.8v-5.3h2.9
	c1.8,0,2,1.5,2.1,3c0,0.4,0.1,1.8,0.4,2.3h3.7c-0.5-0.5-0.6-2.7-0.6-3.3c-0.1-1.4-0.6-3.1-2.1-3.5v0c1.5-0.6,2.3-2.1,2.3-3.6
	c0-2.9-2.5-4.1-5.1-4.1h-7.4V32.5z"/>
<path class="st0" d="M102.3,21h2.9c0.8,0,1.5,0.3,1.5,1.4c0,1-0.9,1.4-1.5,1.4h-2.9V21 M98.5,32.5h7c3.1,0,5.6-1.1,5.6-4.5
	c0-1.6-0.9-3-2.5-3.4c1.1-0.6,1.9-1.6,1.9-2.9c0-3-2.7-3.7-5.2-3.6h-6.8V32.5z M102.3,26.2h3c1.1,0,2,0.4,2,1.7c0,1.2-0.8,1.6-2,1.6
	h-3V26.2z"/>
<polygon class="st1" points="125.2,18 120.9,18 118,23.9 115.1,18 110.9,18 116.1,27.1 116.1,32.5 119.9,32.5 119.9,27.1 "/>
<path class="st1" d="M124.9,27.7c0,3.7,3,5.2,6.3,5.2c3.2,0,6.3-1.2,6.3-4.8c0-2.6-2.1-3.6-4.2-4.2c-2.1-0.6-4.2-0.8-4.2-1.9
	c0-1,1-1.2,1.8-1.2c1.2,0,2.4,0.4,2.3,1.8h3.8c0-3.3-2.9-4.7-5.8-4.7c-2.7,0-5.9,1.2-5.9,4.4c0,2.7,2.2,3.6,4.2,4.2
	c2.1,0.6,4.2,0.8,4.2,2.1c0,1.1-1.2,1.5-2.3,1.5c-1.6,0-2.7-0.5-2.7-2.3H124.9"/>
<polygon class="st1" points="139.4,32.5 143.2,32.5 143.2,26.6 148.1,26.6 148.1,32.5 151.9,32.5 151.9,18 148.1,18 148.1,23.3 
	143.2,23.3 143.2,18 139.4,18 "/>
<rect x="154.7" y="18" class="st1" width="3.8" height="14.5"/>
<path class="st0" d="M165,21.1h3c1,0,1.9,0.5,1.9,1.6c0,1.1-0.6,1.7-1.7,1.7H165V21.1 M161.3,32.5h3.8v-5.3h2.9c1.8,0,2,1.5,2.1,3
	c0,0.4,0.1,1.8,0.4,2.3h3.7c-0.5-0.5-0.6-2.7-0.6-3.3c-0.1-1.4-0.6-3.1-2.1-3.5v0c1.5-0.6,2.3-2.1,2.3-3.6c0-2.9-2.5-4.1-5.1-4.1
	h-7.4V32.5z"/>
<polygon class="st1" points="175.9,32.5 187.7,32.5 187.7,29.3 179.7,29.3 179.7,26.5 186.8,26.5 186.8,23.6 179.7,23.6 179.7,21.1 
	187.5,21.1 187.5,18 175.9,18 "/>
</svg>
